<svg xmlns="http://www.w3.org/2000/svg" viewBox="0 0 400 240" role="img"><title>Ilustrasi kategori IoT &amp; EMBEDDED</title><rect width="400" height="240" rx="12" fill="#f3f6fb"/><circle cx="200" cy="119" r="91" fill="#eaf0f9"/><g stroke="#6aa89a" stroke-width="3" stroke-linecap="round" stroke-linejoin="round"><rect x="133" y="61" width="134" height="122" rx="7" fill="#e5f1ef"/><rect x="175" y="97" width="48" height="49" rx="3" fill="#acd0c8"/><path d="M148 77v90 M253 77v90 M181 77h34 M146 84h9m-9 14h9m-9 14h9m-9 14h9m-9 14h9m-9 14h9 M244 84h9m-9 14h9m-9 14h9m-9 14h9m-9 14h9m-9 14h9 M183 156v13h32v-13"/></g><circle cx="75" cy="58" r="3" fill="#6aa89a" opacity=".3"/><circle cx="328" cy="184" r="4" fill="#6aa89a" opacity=".3"/></svg>